<svg xmlns="http://www.w3.org/2000/svg" width="16.777" height="13.394" viewBox="0 0 16.777 13.394">
  <path id="Path_91" data-name="Path 91" d="M569.1,56.63a1.17,1.17,0,0,1,.377-.559q2.621-2.612,5.233-5.231a.775.775,0,0,1,.638-.26.788.788,0,0,1,.681.5.721.721,0,0,1-.135.8c-.024.029-.051.055-.078.081l-3.959,3.958a.436.436,0,0,1-.081.049L571.8,56h.1q6.076,0,12.153,0a.75.75,0,0,1,.706.376.8.8,0,0,1-.517,1.195,1.185,1.185,0,0,1-.216.011h-12.19l-.024.031a.43.43,0,0,1,.079.051q1.977,1.975,3.953,3.952a.761.761,0,0,1,.081,1.033.784.784,0,0,1-1.212.068q-2.562-2.574-5.134-5.137a1.421,1.421,0,0,0-.16-.133.752.752,0,0,1-.3-.474.239.239,0,0,0-.014-.036Z" transform="translate(-568.598 -50.076)" fill="#fff" stroke="#fff" stroke-width="1"/>
</svg>
