<svg xmlns="http://www.w3.org/2000/svg" width="26.784" height="30.254" viewBox="0 0 26.784 30.254">
  <g id="EmergencyHelp_Icon" transform="translate(0.252 0.25)">
    <path id="Path_115" data-name="Path 115" d="M567.373,430.376c0-.337,0-.633,0-.93.009-2.126-.07-4.258.044-6.38a8.723,8.723,0,0,1,17.425.68c.013,1.925,0,3.849,0,5.774v.847c.289.022.485.046.682.05,1.291.023,1.345.078,1.346,1.407,0,1.621,0,3.241,0,4.862,0,.926-.138,1.059-1.043,1.059q-9.724,0-19.448,0c-.916,0-1.034-.118-1.036-1.06,0-1.671,0-3.343,0-5.014,0-1.133.109-1.238,1.27-1.251C566.835,430.414,567.057,430.394,567.373,430.376Zm16.08,0c0-2.312.013-4.536,0-6.761a6.993,6.993,0,0,0-6.886-7.27,7.072,7.072,0,0,0-7.8,7.116c-.03,2.125-.007,4.251,0,6.378a4.514,4.514,0,0,0,.07.538Zm1.982,6v-4.538H566.768v4.538Z" transform="translate(-562.968 -407.941)" fill="currentColor" stroke="currentColor" stroke-width="0.4"/>
    <path id="Path_116" data-name="Path 116" d="M565.316,416.929c-.074.181-.1.415-.213.478a.748.748,0,0,1-.588.05c-.534-.252-1.041-.563-1.559-.851q-1.01-.565-2.021-1.129c-.305-.17-.481-.405-.286-.744s.47-.26.747-.105c1.175.657,2.353,1.31,3.525,1.972A3.008,3.008,0,0,1,565.316,416.929Z" transform="translate(-560.566 -407.721)" fill="currentColor" stroke="currentColor" stroke-width="0.5"/>
    <path id="Path_117" data-name="Path 117" d="M586.953,406.007c-.194.026-.408.123-.521.054a.747.747,0,0,1-.336-.485c-.048-.589-.031-1.183-.038-1.775-.009-.772-.017-1.544-.028-2.316,0-.35.111-.619.5-.619s.46.278.464.6c.016,1.346.036,2.692.046,4.038A2.977,2.977,0,0,1,586.953,406.007Z" transform="translate(-573.37 -400.866)" fill="currentColor" stroke="currentColor" stroke-width="0.5"/>
    <path id="Path_118" data-name="Path 118" d="M604.988,416.929c.074.181.1.415.213.478a.747.747,0,0,0,.588.05c.535-.252,1.042-.563,1.559-.851q1.012-.565,2.022-1.129c.306-.17.482-.405.287-.744s-.47-.26-.747-.105c-1.175.657-2.353,1.31-3.525,1.972A2.986,2.986,0,0,0,604.988,416.929Z" transform="translate(-583.457 -407.721)" fill="currentColor" stroke="currentColor" stroke-width="0.5"/>
    <path id="Path_119" data-name="Path 119" d="M575.914,426.955a5.681,5.681,0,0,1,5.272-5.2c.451-.013.833.106.888.612.06.565-.32.724-.806.768a3.927,3.927,0,0,0-3.7,2.96,4.091,4.091,0,0,0-.124.818c-.046.5-.2.992-.789.845C576.36,427.685,576.158,427.235,575.914,426.955Z" transform="translate(-568.283 -411.369)" fill="currentColor" stroke="currentColor" stroke-width="0.4"/>
  </g>
</svg>
