<svg id="event-schedule-svgrepo-com" xmlns="http://www.w3.org/2000/svg" width="32" height="32" viewBox="0 0 32 32">
  <path id="Path_1299" data-name="Path 1299" d="M21,30a8,8,0,1,1,8-8A8,8,0,0,1,21,30Zm0-14a6,6,0,1,0,6,6A6,6,0,0,0,21,16Z" fill="#036cb6"/>
  <path id="Path_1300" data-name="Path 1300" d="M22.59,25,20,22.41V18h2v3.59l2,2Z" fill="#036cb6"/>
  <path id="Path_1301" data-name="Path 1301" d="M28,6a2,2,0,0,0-2-2H22V2H20V4H12V2H10V4H6A2,2,0,0,0,4,6V26a2,2,0,0,0,2,2h4V26H6V6h4V8h2V6h8V8h2V6h4v6h2Z" fill="#036cb6"/>
  <rect id="_Transparent_Rectangle_" data-name="&lt;Transparent Rectangle&gt;" width="32" height="32" fill="none"/>
</svg>
