<svg xmlns="http://www.w3.org/2000/svg" width="20.627" height="19.747" viewBox="0 0 20.627 19.747">
  <path id="Home_Icon" d="M288.886,323.887a1.454,1.454,0,0,1-.9-1.565c.032-2.362.012-4.725.012-7.086,0-.117-.01-.233-.015-.368a.869.869,0,0,0-.157-.028c-.779.021-1.1-.143-1.316-.672a1.564,1.564,0,0,1,.413-1.794c.819-.719,1.645-1.428,2.468-2.141q2.827-2.447,5.654-4.9c1.025-.891,1.65-.9,2.676-.012q4.047,3.505,8.094,7.008a1.574,1.574,0,0,1,.513,1.669c-.157.662-.546.867-1.537.837v.412c0,2.349-.027,4.7.012,7.047a1.526,1.526,0,0,1-.874,1.587h-5.512a2.275,2.275,0,0,1-.273-.721c-.022-2.1-.018-4.194-.007-6.29,0-.291-.078-.393-.375-.381-.51.022-1.022.007-1.533.007h-1.594v.518c0,2.07-.006,4.14.006,6.211a.646.646,0,0,1-.319.656Zm10.09-.89a1.888,1.888,0,0,0,.208.027c1.469,0,2.939-.007,4.408.007.333,0,.346-.174.346-.424,0-2.6,0-5.2,0-7.793,0-1.04.023-1.052,1.026-.821.157.037.454-.021.5-.121a1.01,1.01,0,0,0,.018-.649c-.041-.142-.222-.249-.35-.36q-2.111-1.831-4.225-3.659c-1.352-1.164-2.7-2.33-4.064-3.48-.431-.364-.554-.339-.98.03l-6.309,5.461c-.684.593-1.379,1.174-2.042,1.789a.928.928,0,0,0-.3.626c.017.427.274.494.872.291.56-.19.761-.022.759.578-.008,2.716,0,5.432-.009,8.148,0,.292.111.383.4.381,1.443-.011,2.887,0,4.329-.006a1.986,1.986,0,0,0,.224-.029v-.479q0-3.111,0-6.22c0-.5.128-.633.626-.634q1.988-.008,3.976,0c.474,0,.591.127.591.581q0,2.459,0,4.92C298.975,321.763,298.977,322.365,298.977,323Z" transform="translate(-286.058 -304.44)" fill="currentColor" stroke="currentColor" stroke-width="0.6"/>
</svg>
