<svg xmlns="http://www.w3.org/2000/svg" width="27.834" height="24.731" viewBox="0 0 27.834 24.731">
  <g id="JobAss_Icon" transform="translate(0.25 0.25)">
    <path id="Path_126" data-name="Path 126" d="M617.882,302.312c-.239,1.307-.239,1.307-1.672,1.307-1.079,0-2.157-.008-3.236,0-.508.005-.744-.174-.741-.727q.029-4.269,0-8.539c0-.475.176-.662.644-.658,1.423.012,2.846.01,4.269,0,.409,0,.689.117.646.581-.037.408.141.533.533.607,3.663.7,7.316,1.454,10.981,2.14a1.814,1.814,0,0,1,1.56,1.3c1.587-.406,3.14-.856,4.717-1.191a3.9,3.9,0,0,1,3.645.944c.337.314.54.668.009,1a59.3,59.3,0,0,1-9.792,5.25c-2.039.806-4.018.388-5.984-.2C621.607,303.576,619.775,302.933,617.882,302.312Zm20.588-3.778a3.694,3.694,0,0,0-3.231-.439c-1.786.5-3.694.692-5.216,1.928a1,1,0,0,1-.58.181c-2.157.013-4.315.019-6.471-.007-.177,0-.349-.259-.523-.4.185-.149.349-.367.56-.43a3.027,3.027,0,0,1,.821-.02c1.743,0,3.487.011,5.232-.005.728-.006,1.148-.552.789-1.026a1.43,1.43,0,0,0-.814-.414c-2.8-.564-5.61-1.106-8.417-1.648-.911-.175-1.825-.332-2.816-.511,0,1.807-.014,3.5.02,5.195,0,.171.257.426.446.49,2.053.707,4.1,1.427,6.178,2.055a6.324,6.324,0,0,0,4.767-.007c2.459-1.213,4.889-2.488,7.319-3.76C637.178,299.381,637.776,298.96,638.47,298.534Zm-25.3-3.938v8.055h3.71V294.6Z" transform="translate(-612.233 -280.509)" fill="currentColor" stroke="currentColor" stroke-width="0.5"/>
    <path id="Path_127" data-name="Path 127" d="M627.481,283.383c0-.591.013-1.089,0-1.588-.014-.4.119-.585.552-.581q2.2.025,4.407,0c.467-.006.6.192.582.621-.022.454-.005.912-.005,1.49.969,0,1.9,0,2.827,0,1.914.008,1.693-.2,1.7,1.684.006,2.869-.014,5.738.014,8.607.005.636-.2.831-.834.828q-6.472-.033-12.945,0c-.606,0-.8-.2-.8-.8q.03-4.751,0-9.5c-.005-.62.219-.788.8-.771C624.987,283.408,626.2,283.383,627.481,283.383Zm1.538,6.026c0-.476-.008-.885,0-1.294.017-.667.547-.573.906-.5.524.11,1.308-.481,1.538.494a3.524,3.524,0,0,1,.009.686c.006.2.025.394.04.608a8.737,8.737,0,0,0,4.864-1.626c.2-.151.45-.4.461-.617.048-1.024.021-2.051.021-3.1H623.643c0,.947.032,1.84-.013,2.73a1.071,1.071,0,0,0,.532,1.017A9.032,9.032,0,0,0,629.019,289.409Zm-5.368,4.3h13.136v-5.361a10.946,10.946,0,0,1-5.254,1.781c-.12,1-.12,1-.793,1.011-1.643.02-1.643.02-1.807-1.032a10.641,10.641,0,0,1-5.282-1.755Zm8.637-10.366v-1.4h-4.094v1.4Zm-1.517,4.952h-1.037v2.117h1.037Z" transform="translate(-611.626 -281.214)" fill="currentColor" stroke="currentColor" stroke-width="0.5"/>
  </g>
</svg>
