<svg xmlns="http://www.w3.org/2000/svg" width="30.128" height="29.864" viewBox="0 0 30.128 29.864">
  <g id="Legal_Icon" transform="translate(0.1 0.1)">
    <path id="Path_157" data-name="Path 157" d="M448.348,464.112a6.575,6.575,0,0,1,.924.282q4.393,1.934,8.773,3.9a2.184,2.184,0,0,1,1.415,2.487,2.373,2.373,0,0,1-2.23,2.088.786.786,0,0,0-.534.383q-1.882,4.153-3.707,8.331a.777.777,0,0,0,.1.642,2.4,2.4,0,0,1-.056,3.064,2.225,2.225,0,0,1-2.8.605q-4.425-1.946-8.837-3.925a2.276,2.276,0,0,1-1.44-2.427,2.468,2.468,0,0,1,2.2-2.144.872.872,0,0,0,.591-.413q1.873-4.118,3.677-8.267a.96.96,0,0,0-.13-.767,2.372,2.372,0,0,1-.131-2.551A2.28,2.28,0,0,1,448.348,464.112Zm7.1,8.221L447.965,469l-3.971,8.918,7.484,3.328Zm-4.044,12.4c.2-.242.545-.485.625-.8a1.079,1.079,0,0,0-.321-.851,3.075,3.075,0,0,0-.92-.445q-3.955-1.766-7.911-3.531c-.747-.334-1.074-.226-1.34.4-.277.648.1.92.616,1.149q4.283,1.9,8.56,3.819C450.875,484.549,451.051,484.6,451.4,484.731Zm-4.04-17.982a2.144,2.144,0,0,0,.577.543c2.927,1.322,5.87,2.611,8.8,3.924a.75.75,0,0,0,1.139-.371.779.779,0,0,0-.436-1.181c-2.944-1.306-5.884-2.624-8.833-3.92C447.945,465.451,447.395,465.828,447.361,466.749Z" transform="translate(-439.686 -464.112)" fill="currentColor" stroke="currentColor" stroke-width="0.2"/>
    <path id="Path_158" data-name="Path 158" d="M455.639,500.53c.295,0,.57,0,.844,0a.694.694,0,0,1,.79.685.718.718,0,0,1-.754.806c-.459.037-.922.017-1.383.017l-14.388-.008c-.184,0-.43.062-.54-.032-.253-.214-.611-.511-.6-.765s.461-.694.658-.663c.925.142,1.121-.419,1.309-1.1.171-.619.4-1.225.61-1.831a2.127,2.127,0,0,1,2.116-1.575q4.116-.026,8.231,0a2.126,2.126,0,0,1,2.125,1.563C454.988,498.579,455.3,499.538,455.639,500.53Zm-12.828-.056h11.207c-.282-.854-.495-1.657-.826-2.408a1.055,1.055,0,0,0-.8-.482q-3.981-.055-7.964,0a.992.992,0,0,0-.757.442C443.334,498.8,443.1,499.616,442.811,500.474Z" transform="translate(-439.604 -472.384)" fill="currentColor" stroke="currentColor" stroke-width="0.2"/>
    <path id="Path_159" data-name="Path 159" d="M471.3,490.533a8.879,8.879,0,0,1-1.319-.532c-3.068-1.829-6.12-3.685-9.181-5.525-.477-.287-.776-.661-.448-1.184.339-.539.8-.364,1.263-.084q4.433,2.69,8.875,5.361c1.033.622,1.4.5,1.9-.612.272-.609.545-1.219.807-1.833.354-.829.163-1.246-.7-1.509q-5.051-1.537-10.1-3.071a1.268,1.268,0,0,1-.653-.335.863.863,0,0,1-.116-.742.94.94,0,0,1,.688-.429,3.959,3.959,0,0,1,1.132.271q4.754,1.44,9.506,2.892a2.375,2.375,0,0,1,1.638,3.5c-.335.783-.668,1.568-1.042,2.333A2.523,2.523,0,0,1,471.3,490.533Z" transform="translate(-444.942 -468.237)" fill="currentColor" stroke="currentColor" stroke-width="0.2"/>
  </g>
</svg>
