<svg xmlns="http://www.w3.org/2000/svg" width="12.8" height="16" viewBox="0 0 12.8 16">
  <g id="Location" transform="translate(-38.477 -453)">
    <path id="Path_634" data-name="Path 634" d="M12.4,18a.639.639,0,0,1-.415-.152c-.155-.132-3.8-3.264-5.325-6.68a.64.64,0,1,1,1.169-.52,20.67,20.67,0,0,0,4.559,5.843c1.747-1.7,5.131-5.486,5.131-7.943A5.2,5.2,0,0,0,12.4,3.28,5.2,5.2,0,0,0,7.28,8.547a.64.64,0,1,1-1.28,0A6.482,6.482,0,0,1,12.4,2a6.482,6.482,0,0,1,6.4,6.547c0,3.784-5.724,9.062-5.968,9.285A.641.641,0,0,1,12.4,18Z" transform="translate(32.477 451)" fill="#d2e9f9"/>
    <path id="Path_635" data-name="Path 635" d="M14.56,13.12a2.56,2.56,0,1,1,2.56-2.56A2.563,2.563,0,0,1,14.56,13.12Zm0-3.84a1.28,1.28,0,1,0,1.28,1.28A1.281,1.281,0,0,0,14.56,9.28Z" transform="translate(30.316 448.84)" fill="#d2e9f9"/>
  </g>
</svg>
