<svg xmlns="http://www.w3.org/2000/svg" width="22.8" height="24.37" viewBox="0 0 22.8 24.37">
  <g id="Group_1617" data-name="Group 1617" transform="translate(0.4 0.401)">
    <path id="UserName_Icon" d="M474.421,48.1a6.288,6.288,0,1,1,7.85-9.776,6.053,6.053,0,0,1,1.954,5.082,6.237,6.237,0,0,1-2.727,4.7c.495.191.974.353,1.433.558a10.646,10.646,0,0,1,5.13,4.474,6.2,6.2,0,0,1,.852,4.011,2.856,2.856,0,0,1-1.674,2.272,7.429,7.429,0,0,1-2.965.672c-1.354.061-2.71.077-4.065.081-2.53.007-5.061,0-7.59-.021a11.143,11.143,0,0,1-3.248-.46,3.114,3.114,0,0,1-2.4-3.251,6.416,6.416,0,0,1,.734-2.971,10.337,10.337,0,0,1,4.864-4.6C473.165,48.583,473.794,48.358,474.421,48.1Zm4.784.368c.629-.422,1.207-.794,1.766-1.19a5.191,5.191,0,0,0,2.312-4.349,5.314,5.314,0,1,0-10.26,1.906,5.268,5.268,0,0,0,2.019,2.5l1.689,1.135c-.3.089-.532.163-.77.23a14.5,14.5,0,0,0-3.818,1.5,9.063,9.063,0,0,0-3.774,4.142,5.349,5.349,0,0,0-.434,2,2.225,2.225,0,0,0,1.814,2.458,10.944,10.944,0,0,0,3.028.392q5.156.03,10.311,0a10.43,10.43,0,0,0,3.276-.451A2.142,2.142,0,0,0,488,56.473a6.084,6.084,0,0,0-1.4-3.794,10.517,10.517,0,0,0-5.457-3.638C480.52,48.851,479.89,48.669,479.2,48.466Z" transform="translate(-466.97 -36.607)" fill="#8e8e8e" stroke="#8e8e8e" stroke-width="0.8"/>
  </g>
</svg>
