<svg xmlns="http://www.w3.org/2000/svg" width="15.901" height="15.333" viewBox="0 0 15.901 15.333">
  <path id="Login_icon" d="M13.328,10.571a4.553,4.553,0,1,0-.973.82A6.8,6.8,0,0,1,16.742,17.2H3.16a6.818,6.818,0,0,1,2.316-4.572.568.568,0,1,0-.746-.856,7.951,7.951,0,0,0-2.729,6,.568.568,0,0,0,.568.568H17.333a.567.567,0,0,0,.568-.568A7.936,7.936,0,0,0,13.328,10.571ZM6.543,7.543a3.407,3.407,0,1,1,3.407,3.407A3.411,3.411,0,0,1,6.543,7.543Z" transform="translate(-2 -3)" fill="currentColor"/>
</svg>
