<svg id="PW_Icon" xmlns="http://www.w3.org/2000/svg" width="20" height="23.096" viewBox="0 0 20 23.096">
  <path id="Path_94" data-name="Path 94" d="M487.979,190.076c.235,0,.451,0,.666,0a3.1,3.1,0,0,1,3.024,2.715,13.157,13.157,0,0,1,.035,1.5q0,3.98,0,7.96a3.133,3.133,0,0,1-3.154,3.222q-4.167.007-8.335,0-2.642,0-5.286-.008a3.039,3.039,0,0,1-1.823-.507,3.1,3.1,0,0,1-1.392-2.6c-.01-2.791,0-5.583,0-8.373a11.362,11.362,0,0,1,.044-1.235,2.922,2.922,0,0,1,1.637-2.318,3.025,3.025,0,0,1,1.488-.361c.182,0,.367-.007.549,0,.116.005.156-.026.161-.148.026-.662.021-1.329.1-1.984a5.957,5.957,0,0,1,2.527-4.461,6.4,6.4,0,0,1,7.425.184,5.972,5.972,0,0,1,2.264,4.044,15.325,15.325,0,0,1,.071,2.171C487.978,189.936,487.979,189.994,487.979,190.076Zm-6.278,1.65h-6.786a1.878,1.878,0,0,0-.323.019,1.45,1.45,0,0,0-1.231,1.439c-.009.429,0,.858,0,1.287q0,3.911,0,7.823a1.49,1.49,0,0,0,.179.756,1.527,1.527,0,0,0,1.442.772l13.508,0a1.515,1.515,0,0,0,1.565-1.561q0-4.5,0-9a1.458,1.458,0,0,0-1.526-1.538Q485.112,191.721,481.7,191.725Zm-4.436-1.675c.036,0,.069.005.1.005q4.419,0,8.836,0c.106,0,.127-.042.127-.132,0-.207,0-.416,0-.625a7.309,7.309,0,0,0-.123-1.764,4.34,4.34,0,0,0-2.138-2.925,4.648,4.648,0,0,0-3.021-.514,4.326,4.326,0,0,0-3.643,3.5,12.192,12.192,0,0,0-.14,1.793C477.258,189.6,477.264,189.82,477.264,190.05Z" transform="translate(-471.708 -182.379)" fill="#8e8e8e"/>
</svg>
