<svg xmlns="http://www.w3.org/2000/svg" width="25.972" height="31.711" viewBox="0 0 25.972 31.711">
  <g id="MapPath_Icon" transform="translate(0.615 0.609)">
    <path id="Path_101" data-name="Path 101" d="M534.59,253.437a7.64,7.64,0,0,1,3.71-9.355,8.09,8.09,0,0,1,10,1.684c2.009,2.326,2.823,5.044,1.557,7.916a108.815,108.815,0,0,1-7.822,12.9S535.8,256.573,534.59,253.437Zm7.689-5.994a3.695,3.695,0,0,0-.044,7.389,3.695,3.695,0,1,0,.044-7.389Z" transform="translate(-534.11 -243.054)" fill="none" stroke="currentColor" stroke-width="1.2"/>
    <path id="Path_171" data-name="Path 171" d="M1081.313,267.075s-1.389,7.285,3.251,6.165,4.614-11.2,10.176-7.974,1.552,7.974,1.552,7.974" transform="translate(-1072.942 -242.857)" fill="none" stroke="currentColor" stroke-width="1.2" stroke-dasharray="3 1"/>
  </g>
</svg>
