<svg xmlns="http://www.w3.org/2000/svg" width="26" height="25.908" viewBox="0 0 26 25.908">
  <path id="MedicalIcon"
    d="M6.168,25.908H5.551A5.552,5.552,0,0,1,0,20.356V5.552A5.551,5.551,0,0,1,5.551,0h.617A5.552,5.552,0,0,1,11.72,5.552v3.32a9.254,9.254,0,0,1,14.188,6.463,9.5,9.5,0,0,1,0,2.64A9.239,9.239,0,0,1,10.675,23.62a5.552,5.552,0,0,1-4.491,2.288Zm5.241-3.19a8.019,8.019,0,0,0,13.254-5.6H8.722a.621.621,0,0,1-.071,0,8.017,8.017,0,0,0,2.28,5.151l.036.036Q11.179,22.518,11.409,22.718ZM1.233,20.356a4.318,4.318,0,0,0,4.317,4.317h.617a4.317,4.317,0,0,0,3.61-1.949,9.268,9.268,0,0,1-2.191-4.749,9.5,9.5,0,0,1,0-2.64,9.27,9.27,0,0,1,.43-1.764H1.233Zm7.909-6.5a8.017,8.017,0,0,0-.468,2.034l.048,0H24.639q-.018-.19-.046-.38a8.019,8.019,0,0,0-13.038-5.04.619.619,0,0,1-.118.1A8.006,8.006,0,0,0,9.142,13.855Zm-.588-1.518a9.255,9.255,0,0,1,1.933-2.511V5.552A4.319,4.319,0,0,0,6.168,1.233H5.551A4.318,4.318,0,0,0,1.233,5.552v6.785Z"
    fill="currentColor" />
</svg>