<svg xmlns="http://www.w3.org/2000/svg" width="23.999" height="14.031" viewBox="0 0 23.999 14.031">
  <g id="Menu_icon" transform="translate(-331 -45)">
    <path id="Path_87" data-name="Path 87" d="M181.042,212.576q-5.136,0-10.271,0c-1.016,0-1.672-.4-1.672-.995s.673-1,1.672-1q10.328,0,20.654,0c.991,0,1.664.41,1.673,1s-.678.995-1.672.995Z" transform="translate(161.901 -165.577)"  fill="currentColor"/>
    <path id="Path_88" data-name="Path 88" d="M177.081,226.608q-3.424,0-6.848,0a1.027,1.027,0,0,1-1.066-.641.993.993,0,0,1,.989-1.354c1.763-.007,3.525,0,5.288,0q4.3,0,8.6,0a.992.992,0,0,1,1,1.316,1.026,1.026,0,0,1-1.078.679Z" transform="translate(161.9 -167.577)"  fill="currentColor"/>
    <path id="Path_89" data-name="Path 89" d="M179.1,217.608c2.852,0,5.7,0,8.557,0a1.353,1.353,0,0,1,1.325.583c.373.672-.188,1.373-1.136,1.406-.617.021-1.236.007-1.854.007H170.875c-.175,0-.349,0-.523-.009-.753-.041-1.255-.44-1.253-.993,0-.569.525-.983,1.3-.986,2.313-.009,4.628,0,6.941-.005H179.1Z" transform="translate(161.902 -166.577)"  fill="currentColor"/>
  </g>
</svg>
