<svg xmlns="http://www.w3.org/2000/svg" width="13.101" height="16.373" viewBox="0 0 13.101 16.373">
  <g id="Notification_icon" transform="translate(-4.003 -1)">
    <path id="Path_177" data-name="Path 177" d="M16.554,15.979H4.547a.552.552,0,0,1-.463-.248.5.5,0,0,1-.022-.507,9.1,9.1,0,0,0,1.031-4.166V9.208A5.337,5.337,0,0,1,10.55,4a5.337,5.337,0,0,1,5.458,5.208v1.838a9.1,9.1,0,0,0,1.031,4.166.5.5,0,0,1-.015.515A.552.552,0,0,1,16.554,15.979ZM5.393,14.937H15.708a10.071,10.071,0,0,1-.791-3.89V9.208A4.27,4.27,0,0,0,10.55,5.042,4.27,4.27,0,0,0,6.184,9.208v1.838a10.071,10.071,0,0,1-.791,3.89Z" transform="translate(0 -1.117)" fill="currentColor"/>
    <path id="Path_178" data-name="Path 178" d="M14.139,28.766A3.139,3.139,0,0,1,11,25.628a.628.628,0,1,1,1.255,0,1.883,1.883,0,0,0,.552,1.331,1.933,1.933,0,0,0,2.662,0,.63.63,0,0,1,.891.891A3.139,3.139,0,0,1,14.139,28.766Z" transform="translate(-3.512 -11.394)" fill="currentColor"/>
    <path id="Path_179" data-name="Path 179" d="M15.628,4.139A.628.628,0,0,1,15,3.511V1.628a.628.628,0,1,1,1.255,0V3.511A.628.628,0,0,1,15.628,4.139Z" transform="translate(-5.077)" fill="currentColor"/>
  </g>
</svg>
