<svg xmlns="http://www.w3.org/2000/svg" width="22" height="21.931" viewBox="0 0 22 21.931">
  <g id="download_Pdf" data-name="download Pdf" transform="translate(-93.5 -505.411)">
    <path id="Path_681" data-name="Path 681" d="M21.929,5.322,18.1.883,17.344,0H8.3A2.2,2.2,0,0,0,6.1,2.2V5H7.466V2.737A1.235,1.235,0,0,1,8.7,1.5l7.736-.007V5.158A2.467,2.467,0,0,0,18.9,7.628H21.58L21.447,18.2a1.239,1.239,0,0,1-1.233,1.234L8.6,19.425a1.264,1.264,0,0,1-1.126-1.361v-.894H6.111V18.5a2.25,2.25,0,0,0,2,2.431l12.5,0a2.2,2.2,0,0,0,2.2-2.2V6.345l-.88-1.023" transform="translate(92.191 505.908)" fill="#fff" stroke="#fff" stroke-width="1"/>
    <path id="Path_682" data-name="Path 682" d="M14.174,19.666H0V6.129H14.174V19.666M1.361,18.3H12.811V7.491H1.361" transform="translate(94 504.093)" fill="#fff" stroke="#fff" stroke-width="1"/>
    <path id="Path_683" data-name="Path 683" d="M8.3,9.022c.215.1.17.231.1.845A12.744,12.744,0,0,1,7.68,12.8a15.831,15.831,0,0,1-1.636,3.089,8.51,8.51,0,0,1-1.406,1.679,1.639,1.639,0,0,1-.785.421c-.164.028-.239,0-.285-.082a.587.587,0,0,1-.022-.388,1.214,1.214,0,0,1,.381-.607,4.848,4.848,0,0,1,1.256-.836,13.478,13.478,0,0,1,1.943-.725A13.67,13.67,0,0,1,8.638,15a11.156,11.156,0,0,1,1.129-.159,6.319,6.319,0,0,1,1.032,0,6.149,6.149,0,0,1,.948.152,2.422,2.422,0,0,1,.733.283,1.24,1.24,0,0,1,.479.511.719.719,0,0,1,.015.58.614.614,0,0,1-.4.31.968.968,0,0,1-.6,0,2.88,2.88,0,0,1-.785-.421,7.354,7.354,0,0,1-.972-.835A17.328,17.328,0,0,1,8.952,14,9.849,9.849,0,0,1,8,12.569a5.26,5.26,0,0,1-.441-1.113,5.92,5.92,0,0,1-.2-1,3.531,3.531,0,0,1,.015-.808,1.186,1.186,0,0,1,.15-.5.526.526,0,0,1,.255-.193.6.6,0,0,1,.165-.034.306.306,0,0,1,.156,0,1.3,1.3,0,0,1,.239.127" transform="translate(92.955 503.269)" fill="#fff" stroke="#fff" stroke-linejoin="round" stroke-width="0.75"/>
  </g>
</svg>
