<svg xmlns="http://www.w3.org/2000/svg" width="30.8" height="23.568" viewBox="0 0 30.8 23.568">
  <g id="ServiceConnect_icon" transform="translate(0.4 0.41)">
    <path id="Path_153" data-name="Path 153" d="M496.378,47.048c-.037.168-.068.338-.11.5a2.435,2.435,0,0,1-1.274,1.6,7.476,7.476,0,0,1-3.274.67v-.746c.447-.039.9-.059,1.345-.124a6.6,6.6,0,0,0,1.146-.255,1.864,1.864,0,0,0,1.392-1.88,4.873,4.873,0,0,0-1.17-3.256,8.193,8.193,0,0,0-4.26-2.734l-.643-.19c.269-.182.507-.338.741-.5a4.287,4.287,0,1,0-5.8-6.182l-.157.2-.6-.425a5.04,5.04,0,0,1,9.123,2.39,5.031,5.031,0,0,1-1.578,4.218c.537.288,1.088.542,1.6.864a7.52,7.52,0,0,1,3.225,3.827,11.836,11.836,0,0,1,.3,1.2Z" transform="translate(-466.378 -31.57)" fill="currentColor" stroke="currentColor" stroke-width="0.8"/>
    <path id="Path_155" data-name="Path 155" d="M483.712,47.048c.037.168.067.338.11.5a2.435,2.435,0,0,0,1.274,1.6,7.477,7.477,0,0,0,3.274.67v-.746c-.447-.039-.9-.059-1.345-.124a6.6,6.6,0,0,1-1.146-.255,1.864,1.864,0,0,1-1.392-1.88,4.872,4.872,0,0,1,1.17-3.256,8.193,8.193,0,0,1,4.26-2.734l.643-.19c-.269-.182-.507-.338-.741-.5a4.287,4.287,0,1,1,5.8-6.182l.157.2.6-.425a5.04,5.04,0,0,0-9.123,2.39,5.031,5.031,0,0,0,1.578,4.218c-.537.288-1.088.542-1.6.864a7.52,7.52,0,0,0-3.225,3.827,11.853,11.853,0,0,0-.3,1.2Z" transform="translate(-483.712 -31.57)" fill="currentColor" stroke="currentColor" stroke-width="0.8"/>
    <path id="Path_154" data-name="Path 154" d="M472.989,46.256a5.43,5.43,0,0,1-.91-7.9,4.93,4.93,0,0,1,7.251-.313,5.192,5.192,0,0,1,1.578,4.267,5.282,5.282,0,0,1-2.2,3.949c.4.161.786.3,1.157.468a8.71,8.71,0,0,1,4.144,3.757,5.371,5.371,0,0,1,.688,3.368,2.392,2.392,0,0,1-1.352,1.908,5.811,5.811,0,0,1-2.4.564c-1.093.052-2.189.065-3.284.068-2.044.006-4.088,0-6.131-.018a8.683,8.683,0,0,1-2.624-.386,2.6,2.6,0,0,1-1.937-2.73,5.559,5.559,0,0,1,.593-2.495,8.5,8.5,0,0,1,3.929-3.859C471.974,46.664,472.482,46.475,472.989,46.256Zm3.864.309c.508-.355.975-.666,1.427-1a4.409,4.409,0,0,0,1.868-3.652,4.357,4.357,0,0,0-5.008-4.432,4.488,4.488,0,0,0-3.28,6.032,4.394,4.394,0,0,0,1.631,2.1l1.364.953c-.24.075-.43.137-.622.193a11.457,11.457,0,0,0-3.084,1.262A7.512,7.512,0,0,0,468.1,51.5a4.643,4.643,0,0,0-.351,1.68,1.86,1.86,0,0,0,1.465,2.064,8.524,8.524,0,0,0,2.446.329q4.165.025,8.329,0a8.126,8.126,0,0,0,2.646-.379,1.793,1.793,0,0,0,1.324-1.9,5.231,5.231,0,0,0-1.13-3.186,8.485,8.485,0,0,0-4.408-3.055C477.916,46.889,477.406,46.736,476.853,46.565Z" transform="translate(-460.537 -33.642)" fill="currentColor" stroke="currentColor" stroke-width="0.8"/>
  </g>
</svg>
