<svg xmlns="http://www.w3.org/2000/svg" width="28.451" height="30.145" viewBox="0 0 28.451 30.145">
  <g id="Skill_Icon" transform="translate(0.204 0.237)">
    <g id="Group_1095" data-name="Group 1095" transform="translate(10.129)">
      <path id="Path_164" data-name="Path 164" d="M715.005,495.034a1.772,1.772,0,0,1-1.366-.358,1.035,1.035,0,0,0-1.161-.152,1.063,1.063,0,0,0-.611,1.062,1.894,1.894,0,0,1-2.009,1.9,1.868,1.868,0,0,1-1.779-1.341c-.039-.13-.031-.275-.076-.4a1.072,1.072,0,0,0-.849-.755,1.117,1.117,0,0,0-1.056.419,1.728,1.728,0,0,1-1.74.523,1.879,1.879,0,0,1-1.142-2.954,1.05,1.05,0,0,0,.119-1.148,1.1,1.1,0,0,0-1.051-.641,1.826,1.826,0,0,1-1.81-1.249,1.933,1.933,0,0,1,1.137-2.5,1.73,1.73,0,0,1,.317-.065,1.153,1.153,0,0,0,.9-1.521.938.938,0,0,0-.258-.365,1.882,1.882,0,0,1,.613-3.189,1.774,1.774,0,0,1,1.748.235,1.023,1.023,0,0,0,1.128.107,1.073,1.073,0,0,0,.6-1.03,1.845,1.845,0,0,1,1.419-1.86,1.924,1.924,0,0,1,2.335,1.194,1.016,1.016,0,0,1,.051.231,1.066,1.066,0,0,0,.8.981,1.1,1.1,0,0,0,1.19-.374,1.917,1.917,0,0,1,2.516-.1,1.878,1.878,0,0,1,.336,2.584,1.055,1.055,0,0,0-.113,1.149,1.044,1.044,0,0,0,1.035.627,1.936,1.936,0,0,1,1.921,1.427,1.876,1.876,0,0,1-1.176,2.325,1.745,1.745,0,0,1-.3.061,1.119,1.119,0,0,0-.91.748.981.981,0,0,0,.166,1.057c.08.091.189.156.267.249a1.905,1.905,0,0,1-1.188,3.128Zm-11.161-.931a.861.861,0,0,0,.555.654.714.714,0,0,0,.779-.157,2.214,2.214,0,0,1,3.145-.143,2.594,2.594,0,0,1,.791,1.437.642.642,0,0,0,.706.537c.525-.014.75-.263.756-.836a2.331,2.331,0,0,1,2.118-2.274,2.4,2.4,0,0,1,1.492.436.783.783,0,0,0,1.031-.183.728.728,0,0,0-.083-.975,2.1,2.1,0,0,1-.681-1.3,2.3,2.3,0,0,1,1.842-2.577,1.043,1.043,0,0,0,.692-.508.609.609,0,0,0-.5-.937c-.123-.007-.246,0-.368-.014a2.279,2.279,0,0,1-1.656-3.66.7.7,0,0,0-.38-1.053.712.712,0,0,0-.814.167,2.253,2.253,0,0,1-3.712-.677,6.09,6.09,0,0,1-.2-.661.647.647,0,0,0-.516-.5.729.729,0,0,0-.944.8,2.266,2.266,0,0,1-3.559,1.888,1.035,1.035,0,0,0-1.21.111.7.7,0,0,0,.055.938,2.211,2.211,0,0,1,.518,2.6,2.34,2.34,0,0,1-1.743,1.325.733.733,0,0,0-.591.832.657.657,0,0,0,.678.646,2.278,2.278,0,0,1,2.16,1.232,2.211,2.211,0,0,1-.2,2.434A1.92,1.92,0,0,0,703.844,494.1Z" transform="translate(-700.355 -479.681)" fill="currentColor" stroke="currentColor" stroke-width="0.4"/>
      <path id="Path_165" data-name="Path 165" d="M708.733,491.337a3.591,3.591,0,1,1,3.227-3.9A3.609,3.609,0,0,1,708.733,491.337Zm-.567-5.962a2.348,2.348,0,0,0-2.172,2.591,2.4,2.4,0,1,0,2.172-2.591Z" transform="translate(-699.509 -478.826)" fill="currentColor" stroke="currentColor" stroke-width="0.4"/>
    </g>
    <path id="Path_166" data-name="Path 166" d="M712.615,501.592a13.934,13.934,0,0,1,1.736-4.465l-1.682.377a10.656,10.656,0,0,0-1.424,5.757c-2.968,1.024-5.9,2.041-8.349,4.041-.256-.383-.475-.766-.746-1.107a3.459,3.459,0,0,0-3.552-1.307,5.811,5.811,0,0,1-2.644-.025c-.1-.882-.2-1.636-.265-2.392a1.235,1.235,0,0,1,.119-.554,1.244,1.244,0,0,0-.574-1.769,1.017,1.017,0,0,1-.406-.574,1.981,1.981,0,0,0-1.731-1.742c.185-.352.367-.654.5-.975a28.811,28.811,0,0,0,1.125-2.806,2.538,2.538,0,0,0-.036-1.521,6.578,6.578,0,0,1,1.054-6.377,10.53,10.53,0,0,1,7.675-4.345l.714-1.284a11.331,11.331,0,0,0-9.854,5.518,7.264,7.264,0,0,0-.958,6.393,2.776,2.776,0,0,1,.013,1.918c-.242.628-.563,1.224-.844,1.837a9.456,9.456,0,0,0-.591,1.359,1.171,1.171,0,0,0,.838,1.5,1.009,1.009,0,0,1,.861,1.16c-.018.706.273,1.047,1.215,1.068a1.165,1.165,0,0,0-.319,1.793,1.879,1.879,0,0,1,.044,1.162c-.213,1.082.067,1.725,1.142,1.88a13.321,13.321,0,0,0,3.14.037,2.289,2.289,0,0,1,2.357.919,10.69,10.69,0,0,1,.818,1.645c.266.6.725.668,1.209.231a15.634,15.634,0,0,1,2.26-1.827,28.948,28.948,0,0,1,6.6-2.733c.545-.169.7-.457.6-1.023A6.021,6.021,0,0,1,712.615,501.592Z" transform="translate(-691.848 -479.521)" fill="currentColor" stroke="currentColor" stroke-width="0.4"/>
  </g>
</svg>
