<svg xmlns="http://www.w3.org/2000/svg" width="30.399" height="24.453" viewBox="0 0 30.399 24.453">
  <g id="StartEdu_Icon" transform="translate(0.199 0.21)">
    <path id="Path_128" data-name="Path 128" d="M203.764,129.564c-1.235.423-2.468.856-3.709,1.268-.837.278-1.685.528-2.582.808,0,1.919,0,3.823,0,5.727a1.831,1.831,0,0,1-2.243,1.5.79.79,0,0,1-.468-.555.852.852,0,0,1,.4-.608,3.831,3.831,0,0,1,.893-.313V132.12c-.221.054-.389.1-.558.137-.465.111-.9.09-1.05-.42-.13-.457.176-.7.618-.835.606-.183,1.208-.377,1.812-.565l3.945-1.23c-.347-.138-.592-.249-.847-.334q-5.325-1.777-10.655-3.539a1.645,1.645,0,0,0-.935-.065c-3.775,1.231-7.541,2.489-11.307,3.744a3.316,3.316,0,0,0-.4.206c3.961,1.232,7.846,2.446,11.739,3.638a1.591,1.591,0,0,0,.806-.039,14.956,14.956,0,0,1,1.672-.486,1.035,1.035,0,0,1,.825.411.787.787,0,0,1-.326.739c-1.312.436-2.552,1.1-4.087.466-1.649-.676-3.415-1.106-5.132-1.639-.236-.073-.481-.121-.767-.192v5.31c2.366.631,4.722,1.333,7.122,1.85a5.358,5.358,0,0,0,2.206-.426c.52-.136,1.008-.212,1.184.377s-.331.769-.819.9a1.316,1.316,0,0,0-.15.028,6.053,6.053,0,0,1-4.427.028c-1.869-.618-3.8-1.067-5.721-1.554a.9.9,0,0,1-.816-1.009c.027-1.977.01-3.954.01-5.979l-5.222-1.638a1.306,1.306,0,0,1-.428-.144c-.229-.189-.605-.435-.583-.623a1.029,1.029,0,0,1,.6-.685c2.1-.739,4.213-1.43,6.324-2.134,2.471-.823,4.937-1.66,7.42-2.451a2.18,2.18,0,0,1,1.24,0c4.545,1.483,9.077,3,13.611,4.511a7.738,7.738,0,0,1,.8.371Z" transform="translate(-173.764 -123.878)" fill="currentColor" stroke="currentColor" stroke-width="0.4"/>
    <path id="Path_129" data-name="Path 129" d="M198.653,139.754c0,1.764.01,3.528-.008,5.292,0,.421.061.668.52.85.867.344,1.179,1.347.916,2.606a1.554,1.554,0,0,1-1.679,1.246,3.5,3.5,0,0,1-1.751-.389c-.961-.642-.814-2.8.193-3.373a.863.863,0,0,0,.472-.911c-.008-3.361-.015-6.722.006-10.082a1.239,1.239,0,0,0-.527-1.08c-1.134-.91-2.238-1.855-3.359-2.781-.369-.3-.622-.647-.242-1.083.347-.4.719-.232,1.065.056,1.316,1.1,2.655,2.176,3.938,3.315a1.581,1.581,0,0,1,.436,1.043C198.678,136.226,198.653,137.99,198.653,139.754Zm-1.258,8.009c-.139.625.214.688.723.7s.708-.148.71-.686c0-.554-.174-.752-.736-.752S197.278,147.185,197.4,147.763Z" transform="translate(-178.418 -125.708)" fill="currentColor" stroke="currentColor" stroke-width="0.4"/>
  </g>
</svg>
