<svg xmlns="http://www.w3.org/2000/svg" width="15.358" height="15.356" viewBox="0 0 15.358 15.356">
  <path id="_211829_telephone_icon" data-name="211829_telephone_icon" d="M94.584,91.242a6.841,6.841,0,0,0-3.634-1.88,1.291,1.291,0,0,0-.711.188,3.9,3.9,0,0,1-1.265.659c-.122,0-.253-.109-.541-.358l-.048-.044a15.138,15.138,0,0,1-1.278-1.2l-.079-.083c-.057-.057-.1-.109-.153-.157-.27-.279-.467-.48-1.16-1.265l-.031-.035c-.332-.375-.55-.619-.563-.8s.14-.458.528-.986a2.157,2.157,0,0,0,.057-2.334,10.618,10.618,0,0,0-1.4-2.015l-.044-.052a1.883,1.883,0,0,0-1.479-.785,2.619,2.619,0,0,0-1.4.506c-.022.013-.044.031-.065.044A2.8,2.8,0,0,0,80.1,82.1c-.249.807-.414,1.854.777,4.031A19.478,19.478,0,0,0,84.328,90.8a20.823,20.823,0,0,0,3.4,2.9A7.91,7.91,0,0,0,91.8,95.456a2.967,2.967,0,0,0,2.805-1.3C95.735,92.782,95.264,91.944,94.584,91.242Zm-.5,2.439A2.32,2.32,0,0,1,91.8,94.736a7.451,7.451,0,0,1-3.673-1.627,20.164,20.164,0,0,1-3.311-2.818,18.793,18.793,0,0,1-3.333-4.515c-1.051-1.924-.934-2.766-.72-3.459a2.093,2.093,0,0,1,.916-1.056c.022-.013.044-.031.07-.044a2.013,2.013,0,0,1,1.034-.4,1.228,1.228,0,0,1,.955.537l.044.052c1.112,1.361,1.981,2.565,1.326,3.455a2.323,2.323,0,0,0-.667,1.483c.035.423.318.742.746,1.221l.031.035c.7.794.9,1,1.182,1.287.048.048.1.1.153.157l.079.083a17.023,17.023,0,0,0,1.322,1.239l.048.044a1.515,1.515,0,0,0,.982.528,3.537,3.537,0,0,0,1.627-.763.654.654,0,0,1,.349-.083,6.217,6.217,0,0,1,3.15,1.671C94.632,92.3,94.894,92.7,94.082,93.68Z" transform="translate(-79.927 -80.1)" fill="currentColor"/>
</svg>
