<svg xmlns="http://www.w3.org/2000/svg" width="22.5" height="32.93" viewBox="0 0 22.5 32.93">
  <g id="Training_Icon" transform="translate(0.25 0.25)">
    <line id="Line_20" data-name="Line 20" x2="5.998" transform="translate(12.002 5.498)" fill="none" stroke="currentColor" stroke-width="1.5"/>
    <line id="Line_22" data-name="Line 22" x2="14.003" transform="translate(4.498 10.487)" fill="none" stroke="currentColor" stroke-width="1.5"/>
    <g id="Group_1086" data-name="Group 1086" transform="translate(6.048 16.183)">
      <path id="Path_138" data-name="Path 138" d="M277.642,447.986l1.661,4.688a2.013,2.013,0,0,1,.122.366.376.376,0,0,1-.053.287.341.341,0,0,1-.288.032c-.7-.238-1.4-.481-2.1-.74a.3.3,0,0,0-.406.114c-.4.531-.818,1.053-1.239,1.57-.074.09-.22.209-.3.188a.488.488,0,0,1-.252-.283c-.181-.471-.352-.946-.5-1.43-.031-.105.066-.249.1-.376.109.076.273.128.318.232.156.361.271.74.423,1.172.419-.529.812-1,1.17-1.489a.491.491,0,0,1,.679-.2c.585.233,1.185.427,1.852.663l-1.724-4.873c-.168.159-.322.246-.389.377-.373.727-.645.849-1.414.6a.423.423,0,0,0-.1,0c-.176.49-.358.992-.537,1.495-.45,1.264-.895,2.531-1.353,3.792a.525.525,0,0,1-.261.311c-.079.024-.236-.112-.316-.21q-.622-.762-1.22-1.544a.3.3,0,0,0-.406-.113c-.643.243-1.291.471-1.943.688a1.765,1.765,0,0,1-.45.029,1.525,1.525,0,0,1,.015-.448q.792-2.282,1.609-4.555c.08-.224.112-.377-.143-.522a.752.752,0,0,1-.36-.746.562.562,0,0,0-.423-.63.873.873,0,0,1-.508-1.213.571.571,0,0,0-.14-.743.877.877,0,0,1,.009-1.34.559.559,0,0,0,.14-.717.886.886,0,0,1,.538-1.252.54.54,0,0,0,.385-.589.887.887,0,0,1,.966-.961.537.537,0,0,0,.584-.39.891.891,0,0,1,1.261-.522.548.548,0,0,0,.692-.136.881.881,0,0,1,1.361,0,.546.546,0,0,0,.69.142.9.9,0,0,1,1.276.545.513.513,0,0,0,.537.365.9.9,0,0,1,1,1.02.508.508,0,0,0,.351.517.9.9,0,0,1,.551,1.32.514.514,0,0,0,.136.635.894.894,0,0,1-.008,1.41.509.509,0,0,0-.125.636.894.894,0,0,1-.536,1.3.51.51,0,0,0-.37.5C278.218,447.509,278.137,447.645,277.642,447.986Zm1.175-6.03a1.662,1.662,0,0,0-.4-.356.949.949,0,0,1-.647-.97c.008-.39-.153-.539-.55-.538a.935.935,0,0,1-.951-.629c-.16-.394-.344-.474-.727-.306a.909.909,0,0,1-1.112-.224.463.463,0,0,0-.771-.009.922.922,0,0,1-1.139.227c-.36-.16-.556-.073-.7.3a.936.936,0,0,1-.943.641c-.421,0-.567.14-.563.557a.915.915,0,0,1-.637.941c-.363.143-.444.343-.291.71a.928.928,0,0,1-.216,1.117c-.3.292-.3.5,0,.79a.916.916,0,0,1,.226,1.087c-.166.408-.094.592.309.755a.892.892,0,0,1,.607.893c0,.461.14.6.592.6a.893.893,0,0,1,.9.6c.175.417.341.477.781.308a.906.906,0,0,1,1.037.207c.343.338.5.34.833.007a.905.905,0,0,1,1.062-.21c.425.173.582.1.771-.33a.887.887,0,0,1,.878-.583c.473,0,.6-.129.6-.617a.888.888,0,0,1,.595-.87c.422-.176.488-.342.315-.777a.9.9,0,0,1,.2-1.037c.343-.355.343-.5,0-.858a.9.9,0,0,1-.2-1.037C278.722,442.245,278.752,442.143,278.817,441.956Zm-5.844,11.852,1.628-4.592a1.077,1.077,0,0,1-1.351-.243.6.6,0,0,0-.519-.071.936.936,0,0,1-1.355-.558,2.327,2.327,0,0,0-.382-.438l-1.725,4.881c.7-.249,1.317-.459,1.927-.691a.412.412,0,0,1,.551.158C272.129,452.758,272.529,453.248,272.974,453.809Z" transform="translate(-268.476 -438.247)" fill="none" stroke="currentColor" stroke-width="0.5"/>
      <path id="Path_139" data-name="Path 139" d="M276.974,449.295a2.563,2.563,0,1,1,2.565-2.537A2.563,2.563,0,0,1,276.974,449.295Zm-2.248-2.588a2.249,2.249,0,1,0,2.314-2.221A2.257,2.257,0,0,0,274.725,446.707Z" transform="translate(-271.409 -441.172)" fill="none" stroke="currentColor" stroke-width="1"/>
    </g>
    <path id="Path_169" data-name="Path 169" d="M848.168,316.937H835.875l-6.407,6.634v16.948a3.335,3.335,0,0,0,3.3,3.369h1.744v-1.123h-1.744a2.226,2.226,0,0,1-2.2-2.246V324.043l5.756-5.983h11.844a2.226,2.226,0,0,1,2.2,2.246v20.213a2.226,2.226,0,0,1-2.2,2.246h-.8v1.123h.8a3.335,3.335,0,0,0,3.3-3.369V320.306A3.335,3.335,0,0,0,848.168,316.937Z" transform="translate(-829.468 -316.937)" fill="currentColor" stroke="currentColor" stroke-width="0.5"/>
    <path id="Path_170" data-name="Path 170" d="M-118.442,1280.409v6.022h-5.978" transform="translate(125 -1280)" fill="none" stroke="currentColor" stroke-width="1.5"/>
  </g>
</svg>
