<svg xmlns="http://www.w3.org/2000/svg" width="24.818" height="21.449" viewBox="0 0 24.818 21.449">
  <g id="_2305615_address_globe_internet_network_site_icon" data-name="2305615_address_globe_internet_network_site_icon" transform="translate(-3.5 -7.424)">
    <path id="Path_647" data-name="Path 647" d="M28.6,40.081A10.208,10.208,0,0,1,9.38,40" transform="translate(-3.092 -18.433)" fill="none" stroke="#fff" stroke-linecap="round" stroke-linejoin="round" stroke-width="1"/>
    <path id="Path_648" data-name="Path 648" d="M9.43,14.668a10.208,10.208,0,0,1,19.237.094" transform="translate(-3.121 0)" fill="none" stroke="#fff" stroke-linecap="round" stroke-linejoin="round" stroke-width="1"/>
    <path id="Path_649" data-name="Path 649" d="M30.441,40.221c-.659,3.892-2.378,6.665-4.389,6.665s-3.751-2.811-4.4-6.746" transform="translate(-10.143 -18.514)" fill="none" stroke="#fff" stroke-linecap="round" stroke-linejoin="round" stroke-width="1"/>
    <path id="Path_650" data-name="Path 650" d="M21.6,14.805c.634-4,2.373-6.805,4.423-6.805s3.764,2.833,4.411,6.805" transform="translate(-10.114 -0.044)" fill="none" stroke="#fff" stroke-linecap="round" stroke-linejoin="round" stroke-width="1"/>
    <rect id="Rectangle_247" data-name="Rectangle 247" width="23.818" height="6.805" rx="2" transform="translate(4 14.761)" fill="none" stroke="#fff" stroke-linecap="round" stroke-linejoin="round" stroke-width="1"/>
    <path id="Path_651" data-name="Path 651" d="M27.07,29.64,28.116,32l1.051-1.867L30.217,32l1.046-2.361" transform="translate(-13.258 -12.48)" fill="none" stroke="#fff" stroke-linecap="round" stroke-linejoin="round" stroke-width="1"/>
    <path id="Path_652" data-name="Path 652" d="M13.07,29.64,14.116,32l1.051-1.867L16.217,32l1.046-2.361" transform="translate(-5.212 -12.48)" fill="none" stroke="#fff" stroke-linecap="round" stroke-linejoin="round" stroke-width="1"/>
    <path id="Path_653" data-name="Path 653" d="M41.07,29.64,42.116,32l1.051-1.867L44.217,32l1.046-2.361" transform="translate(-21.303 -12.48)" fill="none" stroke="#fff" stroke-linecap="round" stroke-linejoin="round" stroke-width="1"/>
  </g>
</svg>
