<svg xmlns="http://www.w3.org/2000/svg" width="29.772" height="21.604" viewBox="0 0 29.772 21.604">
  <g id="WhatNeed_Icon" transform="translate(0.355 0.329)">
    <path id="Path_140" data-name="Path 140" d="M349.493,433.336l-.61.7-1.967-1.622c-1.291,1.153-2.559,2.285-3.826,3.419-1.121,1-2.249,2-3.351,3.02a1.136,1.136,0,0,0-.37.713c-.025,2.587-.014,5.175-.01,7.763a2.206,2.206,0,0,0,.048.3h4.952c0-1.4,0-2.789,0-4.175,0-.96.027-.987.956-.99,1.106,0,2.212.02,3.317-.011.625-.018.878.208.862.848-.032,1.216-.008,2.432-.008,3.649v.686h4.966v-2.984h.993c0,1.171.025,2.338-.027,3.5-.008.175-.37.475-.573.479-1.9.037-3.8.026-5.706.021-.539,0-.638-.366-.636-.813.006-1.216,0-2.433,0-3.649v-.753h-3.194c0,1.131,0,2.231,0,3.33-.006,2.122.205,1.881-1.872,1.888-1.393,0-2.787-.013-4.18.009-.6.009-.888-.18-.883-.837.021-2.853,0-5.706.025-8.559a1.29,1.29,0,0,1,.383-.844q3.779-3.436,7.612-6.814a.93.93,0,0,1,.844-.157C348.021,432.03,348.735,432.69,349.493,433.336Z" transform="translate(-335.025 -427.646)" fill="currentColor" stroke="currentColor" stroke-width="0.5"/>
    <path id="Path_141" data-name="Path 141" d="M415.1,419.967a7,7,0,1,1-6.975,7.007A7.005,7.005,0,0,1,415.1,419.967Zm6.055,7.07a6.049,6.049,0,1,0-6.087,5.956A6.052,6.052,0,0,0,421.151,427.037Z" transform="translate(-392.963 -418.141)" fill="currentColor" stroke="currentColor" stroke-width="0.5"/>
    <path id="Path_142" data-name="Path 142" d="M330.436,409.179l3.871,3.282-.612.727-3.256-2.743-2.908,2.534-3,2.612c0-.882,0-3.5,0-3.5h-1.573s-.016,2.512-.016,3.8a2.021,2.021,0,0,1-.785,1.8c-1,.8-1.939,1.67-2.951,2.553l-.633-.7c.991-.872,1.948-1.744,2.94-2.572a1.3,1.3,0,0,0,.513-1.133c-.029-1.566-.011-3.134-.011-4.753h3.461v2.41Z" transform="translate(-318.574 -409.179)" fill="currentColor" stroke="currentColor" stroke-width="0.5"/>
    <g id="Group_1088" data-name="Group 1088" transform="translate(19.783 4.52)">
      <path id="Path_143" data-name="Path 143" d="M437.466,442.478v-2.023a2.662,2.662,0,0,1-1.388-.818,2.053,2.053,0,0,1-.442-1.33,1.881,1.881,0,0,1,.5-1.33,2.014,2.014,0,0,1,1.33-.62v-.478h.7v.478a2.072,2.072,0,0,1,1.221.524,2.024,2.024,0,0,1,.579,1.156l-1.221.159a.983.983,0,0,0-.579-.772v1.887a3.116,3.116,0,0,1,1.578.814,1.923,1.923,0,0,1,.42,1.281,2.144,2.144,0,0,1-.529,1.472,2.322,2.322,0,0,1-1.47.734v.9h-.7v-.878a2.237,2.237,0,0,1-1.357-.623,2.563,2.563,0,0,1-.666-1.472l1.26-.135a1.6,1.6,0,0,0,.29.666A1.318,1.318,0,0,0,437.466,442.478Zm0-5.068a.906.906,0,0,0-.454.328.848.848,0,0,0-.169.512.811.811,0,0,0,.154.476,1.071,1.071,0,0,0,.468.355Zm.7,5.136a.982.982,0,0,0,.589-.335.945.945,0,0,0,.227-.63.855.855,0,0,0-.19-.557,1.221,1.221,0,0,0-.625-.36Z" transform="translate(-435.443 -435.879)" fill="currentColor" stroke="currentColor" stroke-width="1"/>
    </g>
  </g>
</svg>
